<?xml version="1.0" standalone="no"?>
<!DOCTYPE svg PUBLIC "-//W3C//DTD SVG 20010904//EN"
 "http://www.w3.org/TR/2001/REC-SVG-20010904/DTD/svg10.dtd">
<svg version="1.0" xmlns="http://www.w3.org/2000/svg"
 width="632.000000pt" height="580.000000pt" viewBox="0 0 632.000000 580.000000"
 preserveAspectRatio="xMidYMid meet">

<g transform="translate(0.000000,580.000000) scale(0.100000,-0.100000)"
fill="#000000" stroke="none">
<path d="M3337 5339 c-40 -24 -115 -219 -208 -544 -23 -82 -43 -151 -44 -152
-1 -1 -45 41 -98 93 -81 81 -101 95 -124 92 l-28 -3 1 -148 c0 -131 -1 -147
-15 -141 -88 36 -179 56 -306 67 -50 5 -177 -9 -221 -23 -52 -18 -48 -35 41
-180 9 -16 2 -10 -131 103 -104 88 -314 239 -382 273 -65 33 -102 26 -113 -21
-25 -103 -37 -531 -19 -690 13 -116 54 -285 85 -352 13 -29 21 -53 17 -53 -4
0 -92 -2 -197 -3 -166 -2 -190 -4 -193 -18 -5 -27 99 -206 156 -269 28 -32 74
-69 100 -82 l49 -24 -134 -160 c-155 -183 -160 -191 -141 -210 34 -34 386 -46
461 -16 32 13 33 7 11 -46 -46 -110 -87 -306 -68 -325 10 -10 43 11 106 64 31
27 95 69 142 94 112 58 154 60 269 10 201 -88 407 -111 652 -74 229 35 423
115 528 217 54 54 57 59 57 107 0 66 -73 566 -86 586 -8 14 -137 73 -295 134
l-126 50 -10 60 c-6 33 -10 61 -9 62 1 1 62 -7 136 -18 74 -11 162 -23 196
-26 l61 -5 -13 73 c-29 177 -31 160 24 226 27 32 72 78 101 102 48 40 171 116
233 144 37 16 39 25 21 83 -36 119 -140 409 -185 513 -95 222 -236 445 -280
441 -2 0 -11 -5 -21 -11z m-199 -1149 c18 -11 41 -34 52 -52 40 -66 16 -122
-58 -139 -146 -33 -251 84 -158 177 29 29 41 34 83 34 30 0 60 -7 81 -20z
m-742 -234 c56 -48 18 -157 -69 -197 -56 -25 -83 -24 -112 6 -53 52 -21 147
64 192 56 29 83 29 117 -1z m68 -372 l15 -46 -134 -153 c-74 -85 -140 -157
-146 -160 -7 -5 -8 4 -4 28 10 51 -7 77 -53 77 l-37 1 31 27 c17 15 90 78 162
140 73 63 132 118 132 123 0 25 20 4 34 -37z m558 -95 c17 -9 17 -12 3 -38 -8
-16 -26 -37 -41 -48 -18 -14 -30 -36 -40 -78 -19 -82 -18 -92 11 -111 44 -29
103 -34 185 -17 41 8 85 16 98 18 13 1 41 17 62 34 50 40 52 24 3 -30 -60 -67
-117 -87 -295 -105 -57 -5 -78 -13 -134 -50 -36 -24 -82 -46 -101 -50 -42 -8
-152 1 -164 13 -4 4 33 21 84 37 78 25 98 36 139 77 40 40 48 54 48 84 0 62
-23 91 -87 112 -73 25 -86 43 -53 78 72 77 210 113 282 74z"/>
<path d="M3883 4919 c-48 -30 -67 -81 -66 -169 1 -88 38 -213 81 -275 26 -38
31 -40 84 -43 66 -3 239 31 282 56 73 42 95 126 56 207 -29 59 -70 80 -148 73
-56 -6 -61 -4 -66 16 -10 39 -65 116 -98 136 -42 25 -84 25 -125 -1z"/>
<path d="M4560 4394 c-19 -2 -78 -9 -130 -15 -191 -21 -536 -108 -656 -165
-123 -58 -284 -184 -284 -222 0 -31 152 -931 192 -1136 47 -246 132 -570 159
-607 27 -39 146 -97 254 -124 217 -55 466 -51 670 10 267 81 592 272 670 395
l22 35 -44 170 c-96 372 -205 810 -248 1005 -86 383 -127 545 -148 584 -18 33
-30 42 -72 54 -48 13 -310 24 -385 16z m304 -125 c39 -31 35 -69 -13 -112 -51
-46 -71 -56 -259 -128 -298 -115 -501 -159 -730 -159 -153 0 -211 11 -252 50
-37 35 -37 43 -1 69 28 20 29 20 24 2 -11 -41 57 -53 230 -41 271 20 443 62
768 189 78 30 118 52 150 83 39 36 42 42 24 46 -38 8 -40 22 -3 22 21 0 46 -9
62 -21z m-510 -471 c8 -13 20 -45 27 -73 6 -27 15 -53 19 -58 3 -4 26 -1 49 8
24 8 64 15 88 15 36 0 50 -6 74 -29 32 -32 38 -71 14 -91 -8 -7 -54 -17 -102
-22 -48 -5 -90 -11 -92 -13 -2 -2 16 -83 40 -179 l43 -174 52 -7 c72 -9 184
-64 221 -109 58 -71 68 -159 28 -245 -30 -63 -64 -106 -115 -144 l-38 -27 20
-76 c10 -42 18 -95 16 -118 -2 -34 -7 -42 -26 -44 -26 -4 -38 19 -67 131 -15
54 -21 67 -34 62 -9 -4 -36 -11 -61 -18 -25 -6 -47 -12 -48 -13 -2 -2 6 -44
18 -95 17 -76 19 -97 9 -120 -6 -16 -15 -29 -19 -29 -27 0 -55 66 -88 200 -7
31 -12 35 -43 38 -76 6 -224 34 -251 48 -39 20 -70 72 -57 95 16 31 44 30 112
-2 65 -30 190 -59 203 -47 3 4 -16 97 -43 207 l-48 201 -73 0 c-88 0 -123 16
-147 66 -36 75 3 213 91 321 l35 42 -13 91 c-9 68 -9 93 0 102 18 18 49 -17
68 -77 l17 -53 44 27 c38 22 43 30 39 51 -11 50 -19 149 -13 164 9 23 34 20
51 -6z"/>
<path d="M4315 3508 c-11 -6 -29 -19 -41 -29 l-20 -19 30 -140 30 -140 53 0
c36 0 53 4 53 13 0 23 -74 327 -79 327 -3 0 -15 -6 -26 -12z"/>
<path d="M4142 3323 c-37 -70 -49 -127 -32 -148 13 -16 120 -22 120 -7 0 23
-44 212 -50 212 -4 0 -21 -26 -38 -57z"/>
<path d="M4340 3078 c1 -7 22 -103 49 -213 52 -222 41 -206 129 -183 23 6 42
16 42 22 0 6 -25 94 -54 196 l-53 185 -57 3 c-41 2 -56 0 -56 -10z"/>
<path d="M4540 3085 c0 -15 93 -331 100 -338 12 -13 99 91 111 134 24 79 -21
149 -117 182 -55 19 -94 28 -94 22z"/>
<path d="M3501 2632 c-86 -55 -106 -73 -113 -98 -21 -81 -132 -190 -217 -214
-100 -28 -194 0 -233 70 l-23 40 -95 0 c-52 0 -124 5 -160 10 -113 17 -120 13
-190 -104 -85 -144 -228 -470 -211 -480 50 -31 794 -43 1066 -18 307 29 579
74 873 143 110 26 131 34 121 45 -7 9 -31 14 -62 14 -63 0 -356 74 -420 107
-77 39 -120 122 -166 323 -11 47 -25 118 -31 158 -7 42 -17 72 -23 71 -7 0
-59 -30 -116 -67z"/>
<path d="M1197 2649 c-32 -19 -74 -115 -216 -494 -79 -213 -181 -532 -181
-570 0 -29 170 -105 233 -105 l32 1 50 151 c28 84 57 160 65 171 15 18 17 18
90 -9 70 -26 112 -31 152 -18 9 3 28 36 44 80 41 113 34 129 -86 202 -110 66
-108 62 -58 180 26 59 36 72 54 72 13 0 93 -25 179 -55 l155 -56 25 28 c13 15
34 55 45 89 18 53 19 65 8 100 -17 50 -51 69 -265 144 -92 32 -194 67 -225 79
-65 24 -76 25 -101 10z"/>
<path d="M2220 2437 c-134 -48 -331 -167 -442 -266 -54 -49 -148 -164 -148
-181 0 -12 476 -120 529 -120 14 0 25 17 42 63 12 34 54 134 92 222 84 195
118 285 112 295 -11 17 -122 9 -185 -13z"/>
<path d="M5319 2271 c-168 -87 -179 -95 -179 -126 0 -37 93 -321 140 -425 23
-52 48 -111 55 -130 7 -19 19 -39 27 -44 26 -16 378 151 378 179 0 18 -42 139
-53 153 -16 21 -68 13 -125 -19 -50 -28 -82 -32 -82 -10 0 5 11 12 25 15 13 3
31 19 38 34 16 33 8 116 -14 138 -14 14 -21 13 -73 -4 -56 -19 -57 -19 -67 0
-14 26 -7 32 60 57 35 13 70 34 84 51 l25 29 -37 91 c-20 49 -40 89 -46 89 -5
-1 -76 -36 -156 -78z"/>
<path d="M4895 2069 c-82 -34 -193 -76 -245 -95 -109 -38 -108 -37 -90 -145
21 -123 62 -146 171 -93 32 15 60 26 62 23 2 -2 16 -71 31 -154 36 -195 44
-227 59 -221 7 2 56 19 110 36 53 17 97 36 97 43 0 7 -11 39 -24 72 -22 54
-66 234 -66 268 0 7 23 21 53 30 79 25 91 43 83 119 -10 86 -54 179 -84 178
-4 -1 -74 -28 -157 -61z"/>
<path d="M4295 1859 c-88 -27 -167 -49 -176 -49 -45 0 -50 -60 -25 -256 8 -61
18 -152 22 -203 5 -64 12 -99 24 -114 16 -20 20 -20 76 -8 103 22 94 10 94
126 0 97 2 105 26 134 14 17 34 31 45 31 22 0 27 -11 63 -132 15 -48 31 -90
36 -93 18 -11 93 17 123 46 32 33 32 16 7 197 -10 75 -72 277 -107 345 -7 15
-21 27 -31 26 -9 0 -89 -23 -177 -50z m64 -166 c12 -43 6 -53 -35 -56 -26 -2
-29 2 -32 29 -3 33 18 64 43 64 8 0 19 -17 24 -37z"/>
<path d="M1647 1822 c-46 -47 -71 -105 -93 -211 -21 -106 -15 -196 16 -246 31
-50 107 -87 192 -93 l66 -5 50 47 c31 29 59 69 76 106 31 69 64 213 68 296 l3
58 -64 14 c-79 18 -85 12 -95 -86 -5 -49 -17 -85 -44 -136 -44 -82 -66 -100
-88 -72 -27 38 -17 98 41 237 32 76 32 87 -7 103 -72 29 -82 28 -121 -12z"/>
<path d="M3858 1761 c-37 -3 -72 -11 -77 -16 -6 -6 -11 -45 -13 -89 l-3 -78
-50 77 -49 77 -61 -6 c-34 -4 -65 -13 -71 -22 -12 -15 -11 -74 6 -244 5 -52
13 -146 16 -207 8 -129 -1 -122 114 -100 l65 13 -1 53 -2 53 47 -46 48 -47
114 18 114 18 3 70 c4 84 -21 303 -46 405 -19 75 -19 75 -53 76 -19 1 -64 -1
-101 -5z"/>
<path d="M2091 1738 c-5 -13 -16 -77 -25 -143 -9 -66 -25 -174 -35 -240 -14
-90 -16 -123 -7 -132 6 -6 38 -13 71 -15 l60 -3 16 48 16 48 13 -45 c7 -25 19
-51 26 -57 15 -12 150 -3 159 11 2 4 -17 51 -43 105 -37 78 -44 99 -32 103 8
3 34 24 59 47 38 37 44 48 49 95 10 104 -41 154 -181 176 -51 7 -102 16 -115
19 -17 4 -24 0 -31 -17z"/>
<path d="M2562 1690 c-54 -11 -61 -16 -74 -48 -11 -30 -30 -415 -22 -448 7
-26 32 -31 191 -40 178 -11 225 11 272 128 81 203 -43 398 -261 413 -35 2 -82
0 -106 -5z m173 -164 c65 -28 75 -98 21 -152 -28 -28 -42 -34 -75 -34 l-41 0
0 100 0 100 30 0 c17 0 46 -6 65 -14z"/>
<path d="M3170 1680 c-54 -54 -31 -145 41 -156 29 -5 41 -1 65 19 24 21 29 33
29 70 0 59 -24 87 -77 87 -25 0 -45 -7 -58 -20z"/>
<path d="M3363 1644 c-22 -22 -25 -31 -19 -71 7 -57 11 -62 53 -79 61 -26 113
5 113 69 0 31 -7 46 -34 73 -42 42 -77 44 -113 8z"/>
<path d="M3014 1606 c-43 -43 -46 -86 -8 -121 14 -13 35 -27 46 -31 53 -17
105 31 93 86 -7 32 -64 100 -85 100 -6 0 -27 -15 -46 -34z"/>
<path d="M3215 1472 c-79 -38 -109 -96 -95 -186 13 -86 59 -126 148 -126 160
0 221 165 105 282 -49 49 -98 58 -158 30z"/>
</g>
</svg>
